<?xml version="1.0" encoding="iso-8859-1"?>
<!-- Generator: Adobe Illustrator 19.0.0, SVG Export Plug-In . SVG Version: 6.00 Build 0)  -->
<svg xmlns="http://www.w3.org/2000/svg" xmlns:xlink="http://www.w3.org/1999/xlink" version="1.1" id="Layer_1" x="0px" y="0px" viewBox="0 0 494.094 494.094" style="enable-background:new 0 0 494.094 494.094;" xml:space="preserve" width="512" height="512">
<g>
	<g>
		<path style="fill:#FFE239;" d="M367.723,400.229c-75.6,73.69-175.08,93.1-241.6,84.45c-22.21-2.59-40.96-8.12-55.99-15.16v-0.01    c-31.36-14.68-46.51-35.92-43.07-50.6c4.7-24.61,42.66-38.56,84.99-59.74c43.15-20.66,90.65-48.55,133.48-88.98    c43.02-40.23,73.8-85.91,97.11-127.69c23.77-40.93,40.05-77.95,64.91-81.11c4.13-0.7,8.68,0.06,13.36,2.22    c20.26,9.34,43.11,44.76,46.12,100.74C471.533,231.269,445.963,329.359,367.723,400.229z"/>
		<path style="fill:#FFB83B;" d="M420.913,63.609l-1.41,17.18c-15.02-3.78-27.53,125.78-130.48,213.1    c-102.95,87.31-234.48,105.64-218.89,175.62c-31.36-14.68-46.51-35.92-43.07-50.6c4.7-24.61,42.66-38.56,84.99-59.74    c43.15-20.66,90.65-48.55,133.48-88.98c43.02-40.23,73.8-85.91,97.11-127.69c23.77-40.93,40.05-77.95,64.91-81.11    C411.683,60.689,416.233,61.449,420.913,63.609z"/>
		<polygon style="fill:#70D65B;" points="445.213,7.499 445.213,87.259 419.503,80.789 387.023,72.609 393.273,7.499   "/>
		<polygon style="fill:#58B741;" points="419.503,80.789 387.023,72.609 393.273,7.499 415.903,7.499   "/>
	</g>
	<g>
		<path d="M474.775,190.44c0.389-9.034,0.326-17.904-0.252-26.494c-2.075-38.517-12.749-63.882-21.813-78.808V7.5    c0-4.142-3.358-7.5-7.5-7.5h-51.937c-3.864,0-7.096,2.936-7.466,6.783l-6.001,62.487c-11.323,11.972-21.283,29.753-32.716,50.176    c-3.503,6.259-7.126,12.731-10.933,19.286c-0.021,0.037-0.043,0.075-0.063,0.112c-28.565,51.198-59.863,92.369-95.709,125.89    c-35.693,33.693-78.73,62.369-131.57,87.669c-3.736,1.789-5.314,6.268-3.526,10.003c1.289,2.691,3.973,4.263,6.77,4.263    c1.085,0,2.189-0.237,3.233-0.737c54.263-25.981,98.55-55.515,135.364-90.267c36.958-34.562,69.182-76.911,98.507-129.459    c3.854-6.638,7.495-13.142,11.017-19.434c10.495-18.748,19.687-35.148,29.264-45.818l50.943,12.828    c10.886,18.357,17.673,43.406,19.164,71.069c4.154,61.78-18.721,159.038-96.862,229.818c-0.068,0.061-0.134,0.124-0.2,0.188    c-64.374,62.747-145.463,84.193-206.093,84.19c-10.472,0-20.345-0.641-29.404-1.819c-31.198-3.636-70.594-16.149-87.602-40.364    c-4.27-6.08-6.055-11.849-5.024-16.245c0.023-0.101,0.045-0.202,0.064-0.304c2.89-15.13,24.401-26.824,48.1-38.455    c3.718-1.825,5.253-6.319,3.428-10.037c-1.825-3.719-6.321-5.253-10.038-3.428c-28.217,13.849-51.924,27.095-56.195,48.957    c-1.983,8.702,0.571,18.426,7.39,28.135c7.69,10.949,20.168,20.977,36.085,29c17.828,8.985,38.707,14.921,61.956,17.63    c10.177,1.323,20.767,1.977,31.615,1.977c28.85,0,59.505-4.627,88.932-13.587c47.915-14.59,91.881-40.457,127.157-74.811    c36.478-33.072,65.028-75.345,82.571-122.261c11.357-30.371,17.971-62.387,19.325-92.505    C474.764,190.766,474.778,190.603,474.775,190.44z M400.088,15h37.623v62.641l-42.608-10.729L400.088,15z"/>
		<path d="M321.646,351.932c-40.517,37.192-91.203,64.796-150.651,82.045c-3.978,1.154-6.267,5.315-5.113,9.293    c0.952,3.28,3.948,5.412,7.2,5.412c0.692,0,1.396-0.096,2.093-0.299c61.687-17.899,114.38-46.632,156.615-85.401    c33.207-30.482,59.896-67.033,79.327-108.64c1.753-3.753,0.131-8.216-3.622-9.969c-3.753-1.753-8.216-0.131-9.969,3.622    C378.929,287.814,353.4,322.784,321.646,351.932z"/>
		<path d="M414.245,227.984c0.838,0.301,1.694,0.444,2.537,0.444c3.075,0,5.958-1.905,7.059-4.965    c5.319-14.798,9.676-29.919,12.95-44.944c0.882-4.047-1.684-8.043-5.731-8.925c-4.043-0.881-8.043,1.684-8.925,5.731    c-3.136,14.389-7.311,28.878-12.41,43.064C408.323,222.287,410.347,226.583,414.245,227.984z"/>
		<path d="M358.37,162.514c3.636,5.665,12.691,3.506,13.654-3.057c0.973-6.63-6.964-11.148-12.176-6.896    C356.909,154.958,356.245,159.367,358.37,162.514z"/>
		<path d="M388.949,155.714c1.166,2.762,3.916,4.635,6.93,4.63c3.336-0.006,6.338-2.277,7.223-5.495    c0.804-2.924-0.264-6.15-2.697-7.978c-2.516-1.89-6.002-2.003-8.637-0.289C388.766,148.536,387.632,152.415,388.949,155.714z"/>
		<path d="M386.85,169.994c-4.332-4.332-11.972-1.682-12.741,4.372c-0.406,3.198,1.365,6.398,4.298,7.739    c2.934,1.342,6.526,0.631,8.694-1.769C389.741,177.413,389.639,172.785,386.85,169.994z"/>
		<path d="M88.239,413.864c4.825,4.825,13.359,0.889,12.784-5.923c-0.267-3.157-2.568-5.859-5.635-6.644    c-3.012-0.77-6.285,0.472-8.033,3.04C85.357,407.272,85.724,411.349,88.239,413.864z"/>
		<path d="M111.84,382.754c-3.391,0.707-5.951,3.678-6.026,7.166c-0.066,3.058,1.783,5.951,4.626,7.114    c6.183,2.528,12.483-4.009,9.665-10.08C118.672,383.866,115.187,382.079,111.84,382.754z"/>
		<path d="M116.739,406.854c-6.161,2.465-5.962,11.564,0.171,13.914c3.021,1.158,6.588,0.214,8.586-2.35    c1.893-2.43,2.128-5.83,0.554-8.48C124.182,406.795,120.122,405.425,116.739,406.854z"/>
	</g>
</g>















</svg>
